<?xml version="1.0" encoding="utf-8" ?>
<svg baseProfile="full" height="660" version="1.1" viewBox="0 0 1280 660" width="1280" xmlns="http://www.w3.org/2000/svg" xmlns:ev="http://www.w3.org/2001/xml-events" xmlns:xlink="http://www.w3.org/1999/xlink"><defs /><rect fill="#071421" height="660" width="1280" x="0" y="0" /><rect fill="#092535" height="65" rx="13" ry="13" stroke="#30566b" stroke-width="1" width="1250" x="15" y="18" /><text fill="#5eead4" font-family="DejaVu Sans,Arial,sans-serif" font-size="30" font-weight="bold" x="39" y="64">Z</text><text fill="#e5f8ff" font-family="DejaVu Sans,Arial,sans-serif" font-size="17" font-weight="bold" x="77" y="49">ZEBJUS FLIGHT CONTROL</text><text fill="#97b6c7" font-family="DejaVu Sans,Arial,sans-serif" font-size="10" font-weight="normal" x="78" y="67">WEBRTC SIMULATOR • NO HARDWARE</text><rect fill="#112e3a" height="30" rx="9" ry="9" stroke="#5eead4" stroke-width="1" width="137" x="394" y="35" /><text fill="#5eead4" font-family="DejaVu Sans,Arial,sans-serif" font-size="11" font-weight="bold" x="404" y="56">● CONNECTED</text><rect fill="#112e3a" height="30" rx="9" ry="9" stroke="#5eead4" stroke-width="1" width="167" x="544" y="35" /><text fill="#5eead4" font-family="DejaVu Sans,Arial,sans-serif" font-size="11" font-weight="bold" x="554" y="56">CONTROL GRANTED</text><rect fill="#13424c" height="33" rx="8" ry="8" stroke="#4aaea6" stroke-width="1" width="117" x="733" y="35" /><text fill="#e5f8ff" font-family="DejaVu Sans,Arial,sans-serif" font-size="13" font-weight="bold" x="743" y="58">ANGLE ▾</text><rect fill="#194c39" height="33" rx="8" ry="8" stroke="#5cba9a" stroke-width="1" width="95" x="866" y="35" /><text fill="#e5f8ff" font-family="DejaVu Sans,Arial,sans-serif" font-size="13" font-weight="bold" x="881" y="58">ARMED</text><rect fill="#722b43" height="39" rx="9" ry="9" stroke="#eb667d" stroke-width="1" width="125" x="977" y="32" /><text fill="#e5f8ff" font-family="DejaVu Sans,Arial,sans-serif" font-size="16" font-weight="bold" x="994" y="57">■ STOP</text><rect fill="#113247" height="36" rx="9" ry="9" stroke="#3c94ae" stroke-width="1" width="130" x="1114" y="34" /><text fill="#e5f8ff" font-family="DejaVu Sans,Arial,sans-serif" font-size="13" font-weight="bold" x="1126" y="58">⚙ SETTINGS</text><rect fill="#0a1e2d" height="516" rx="20" ry="20" stroke="#30566b" stroke-width="1" width="418" x="20" y="99" /><rect fill="#0a1e2d" height="516" rx="20" ry="20" stroke="#30566b" stroke-width="1" width="418" x="842" y="99" /><text fill="#5eead4" font-family="DejaVu Sans,Arial,sans-serif" font-size="16" font-weight="bold" text-anchor="middle" x="229" y="144">LEFT STICK</text><text fill="#97b6c7" font-family="DejaVu Sans,Arial,sans-serif" font-size="12" font-weight="normal" text-anchor="middle" x="229" y="165">THROTTLE ↑ / ↓     REVERSED YAW ← / →</text><text fill="#5eead4" font-family="DejaVu Sans,Arial,sans-serif" font-size="16" font-weight="bold" text-anchor="middle" x="1051" y="144">RIGHT STICK</text><text fill="#97b6c7" font-family="DejaVu Sans,Arial,sans-serif" font-size="12" font-weight="normal" text-anchor="middle" x="1051" y="165">ROLL ← / →     PITCH ↑ / ↓</text><circle cx="223" cy="407" fill="#0b2736" r="128" stroke="#3dbad0" stroke-width="4" /><line stroke="#30566b" x1="104" x2="342" y1="407" y2="407" /><line stroke="#30566b" x1="223" x2="223" y1="288" y2="526" /><circle cx="223" cy="407" fill="#a3dcf0" r="24" stroke="#81e6e7" stroke-width="3" /><circle cx="1060" cy="407" fill="#0b2736" r="128" stroke="#3dbad0" stroke-width="4" /><line stroke="#30566b" x1="941" x2="1179" y1="407" y2="407" /><line stroke="#30566b" x1="1060" x2="1060" y1="288" y2="526" /><circle cx="1060" cy="407" fill="#a3dcf0" r="24" stroke="#81e6e7" stroke-width="3" /><circle cx="188" cy="362" fill="#5eead4" fill-opacity="0.85" r="31" stroke="#c7fff3" stroke-width="3" /><circle cx="1103" cy="379" fill="#acdff2" r="31" stroke="#c7fff3" stroke-width="3" /><text fill="#5eead4" font-family="DejaVu Sans,Arial,sans-serif" font-size="13" font-weight="bold" x="45" y="583">X -27%   Y +35%   •   ANCHOR (220,414)</text><text fill="#5eead4" font-family="DejaVu Sans,Arial,sans-serif" font-size="13" font-weight="bold" x="872" y="583">X +33%   Y +22%   •   ANCHOR (215,410)</text><rect fill="#0b2534" height="517" rx="20" ry="20" stroke="#30566b" stroke-width="1" width="385" x="448" y="100" /><text fill="#5eead4" font-family="DejaVu Sans,Arial,sans-serif" font-size="15" font-weight="bold" text-anchor="middle" x="643" y="143">APPLIED RECEIVER STATE</text><rect fill="#133448" height="82" rx="10" ry="10" stroke="#30566b" stroke-width="1" width="168" x="465" y="161" /><text fill="#97b6c7" font-family="DejaVu Sans,Arial,sans-serif" font-size="12" font-weight="bold" x="480" y="185">THROTTLE</text><text fill="#e5f8ff" font-family="DejaVu Sans,Arial,sans-serif" font-size="24" font-weight="bold" x="480" y="216">1360 µs</text><rect fill="#133448" height="82" rx="10" ry="10" stroke="#30566b" stroke-width="1" width="168" x="643" y="161" /><text fill="#97b6c7" font-family="DejaVu Sans,Arial,sans-serif" font-size="12" font-weight="bold" x="658" y="185">ROLL</text><text fill="#e5f8ff" font-family="DejaVu Sans,Arial,sans-serif" font-size="24" font-weight="bold" x="658" y="216">+33%</text><rect fill="#133448" height="82" rx="10" ry="10" stroke="#30566b" stroke-width="1" width="168" x="465" y="262" /><text fill="#97b6c7" font-family="DejaVu Sans,Arial,sans-serif" font-size="12" font-weight="bold" x="480" y="286">PITCH</text><text fill="#e5f8ff" font-family="DejaVu Sans,Arial,sans-serif" font-size="24" font-weight="bold" x="480" y="317">+22%</text><rect fill="#133448" height="82" rx="10" ry="10" stroke="#30566b" stroke-width="1" width="168" x="643" y="262" /><text fill="#97b6c7" font-family="DejaVu Sans,Arial,sans-serif" font-size="12" font-weight="bold" x="658" y="286">YAW</text><text fill="#e5f8ff" font-family="DejaVu Sans,Arial,sans-serif" font-size="24" font-weight="bold" x="658" y="317">+27%</text><rect fill="#133448" height="82" rx="10" ry="10" stroke="#30566b" stroke-width="1" width="168" x="465" y="363" /><text fill="#97b6c7" font-family="DejaVu Sans,Arial,sans-serif" font-size="12" font-weight="bold" x="480" y="387">ACK</text><text fill="#e5f8ff" font-family="DejaVu Sans,Arial,sans-serif" font-size="24" font-weight="bold" x="480" y="418">814</text><rect fill="#133448" height="82" rx="10" ry="10" stroke="#30566b" stroke-width="1" width="168" x="643" y="363" /><text fill="#97b6c7" font-family="DejaVu Sans,Arial,sans-serif" font-size="12" font-weight="bold" x="658" y="387">RTT</text><text fill="#e5f8ff" font-family="DejaVu Sans,Arial,sans-serif" font-size="24" font-weight="bold" x="658" y="418">24 ms</text><rect fill="#18473f" height="44" rx="9" ry="9" stroke="#40866f" stroke-width="1" width="350" x="466" y="472" /><text fill="#e5f8ff" font-family="DejaVu Sans,Arial,sans-serif" font-size="15" font-weight="bold" x="489" y="500">VIRTUAL SIMULATOR • ARMED</text><text fill="#97b6c7" font-family="DejaVu Sans,Arial,sans-serif" font-size="11" font-weight="normal" text-anchor="middle" x="643" y="553">Motor + PID feedback mirrors one WebApp state</text><text fill="#97b6c7" font-family="DejaVu Sans,Arial,sans-serif" font-size="11" font-weight="normal" text-anchor="middle" x="643" y="586">Slow   •   Medium   •   Fast   (in Settings only)</text><text fill="#97b6c7" font-family="DejaVu Sans,Arial,sans-serif" font-size="12" font-weight="normal" x="38" y="641">CONCEPT ONLY  •  final UI must work on real Android multi-touch devices</text></svg>